<?xml version="1.0" standalone="no"?><!DOCTYPE svg PUBLIC "-//W3C//DTD SVG 1.1//EN" "http://www.w3.org/Graphics/SVG/1.1/DTD/svg11.dtd"><svg t="1541735094326" class="icon" style="" viewBox="0 0 1024 1024" version="1.1" xmlns="http://www.w3.org/2000/svg" p-id="1390" xmlns:xlink="http://www.w3.org/1999/xlink" width="60" height="60"><defs><style type="text/css"></style></defs><path d="M922.21 718.119h-8.08v-30.346h3.22c43.66-15.271 76.306-63.434 76.306-113.102 0-44.033-24.447-83.081-63.8-101.897l-7.725-3.695-0.83-8.504c-10.232-103.657-96.555-181.83-200.795-181.83l-14.421 0.217-3.518-10.569C664.637 154.385 558.53 77.792 438.545 77.792c-137.879 0-256.333 102.838-275.54 239.201l-1.279 9.097-8.658 3.082C79.8 355.259 30.574 425.144 30.574 503.09c0 101.837 82.84 184.683 184.665 184.683v30.346C96.681 718.119 0.23 621.652 0.23 503.09c0-87.686 53.527-166.619 134.12-199.255C159.463 157.042 288.655 47.448 438.545 47.448c129.429 0 244.287 80.346 289.191 201.062 113.892 3.447 207.67 88.05 222.793 200.795 45.527 25.13 73.471 72.424 73.471 125.367 0 64.117-41.852 124.145-99.518 142.715l-2.272 0.732z" fill="#0e932e" p-id="1391"></path><path d="M228.519 347.041l-0.04-1.63c-0.005-110.127 89.695-199.422 199.951-199.422v30.345c-93.522 0-169.611 75.684-169.611 168.712l0.034 1.265-30.334 0.73zM129.114 492.975H98.77c0-54.081 40.479-99.489 94.16-105.623l3.447 30.146c-38.345 4.377-67.263 36.825-67.263 75.477z" fill="#0e932e" p-id="1392"></path><path d="M617.866 984.553H507.285l-6.549-78.945a237.736 237.736 0 0 1-58.081-25.594l-58.318 49.322-78.138-78.164 51.157-60.441a237.343 237.343 0 0 1-22.951-59.188l-76.143-6.352 0.03-110.523 78.918-6.578a238.148 238.148 0 0 1 25.613-58.072l-49.345-58.327 78.163-78.153 60.447 51.167a237.958 237.958 0 0 1 59.208-22.926l6.301-76.148h110.571l6.569 78.953a237.64 237.64 0 0 1 58.091 25.603l58.309-49.349 78.143 78.173-51.156 60.431a237.812 237.812 0 0 1 22.936 59.219l76.148 6.322-0.039 110.539-78.914 6.59a238.15 238.15 0 0 1-25.613 58.061l49.35 58.328-78.153 78.143-60.451-51.154a237.874 237.874 0 0 1-59.207 22.936l-6.315 76.127z m-82.647-30.346h54.713l5.877-71 11.34-2.154c24.862-4.723 48.382-13.811 69.954-26.996l9.345-5.729 55.671 47.127 38.682-38.674-46.03-54.387 6.489-9.531c14.194-20.871 24.398-43.938 30.315-68.541l2.568-10.648 72.7-6.064v-54.693l-70.981-5.896-2.163-11.322c-4.752-24.912-13.839-48.449-27.006-69.963l-5.72-9.355 47.098-55.66-38.652-38.672-54.377 46-9.522-6.479c-20.892-14.204-43.956-24.397-68.561-30.314l-10.659-2.559-6.044-72.72h-54.724l-5.867 71.011-11.34 2.153c-24.853 4.732-48.396 13.819-69.959 26.996l-9.354 5.721-55.662-47.108-38.666 38.662 46.001 54.375-6.475 9.533c-14.214 20.922-24.418 43.986-30.325 68.551l-2.563 10.67-72.696 6.045-0.01 54.693 70.986 5.916 2.164 11.318c4.746 24.902 13.839 48.422 27.021 69.916l5.734 9.354-47.122 55.691 38.657 38.672 54.372-45.992 9.527 6.471c20.906 14.205 43.971 24.398 68.562 30.314l10.668 2.561 6.034 72.707z" fill="#0e932e" p-id="1393"></path><path d="M567.727 803.799c-70.962 0-128.697-57.736-128.697-128.707 0-70.973 57.735-128.709 128.697-128.709 70.972 0 128.708 57.736 128.708 128.709 0 70.971-57.737 128.707-128.708 128.707z m0-227.07c-54.233 0-98.353 44.125-98.353 98.363s44.12 98.361 98.353 98.361c54.239 0 98.362-44.123 98.362-98.361s-44.123-98.363-98.362-98.363z" fill="#0e932e" p-id="1394"></path></svg>